PathFileType	4	(X/Y/Z)	c:/Users/goper/Files/vsCode/490R/osim_files/A01/A01_Fast_05.trc
DataRate	CameraRate	NumFrames	NumMarkers	Units                	OrigDataRate	OrigDataStartFrame	OrigNumFrames
120.00	120.00	6	36	mm	120.0	1024	1365
                Frame#	Time	Mobility_markerset:LPSIS			Mobility_markerset:LASIS			Mobility_markerset:LTH1			Mobility_markerset:LTH2			Mobility_markerset:LTH3			Mobility_markerset:LTH4			Mobility_markerset:LLFE			Mobility_markerset:LMFE			Mobility_markerset:LSH1			Mobility_markerset:LSH2			Mobility_markerset:LSH3			Mobility_markerset:LSH4			Mobility_markerset:LLMAL			Mobility_markerset:LMMAL			Mobility_markerset:LCAL			Mobility_markerset:LMTP5			Mobility_markerset:LTOE			Mobility_markerset:LMTP1			Mobility_markerset:RPSIS			Mobility_markerset:RASIS			Mobility_markerset:RTH1			Mobility_markerset:RTH2			Mobility_markerset:RTH3			Mobility_markerset:RTH4			Mobility_markerset:RLFE			Mobility_markerset:RMFE			Mobility_markerset:RSH1			Mobility_markerset:RSH2			Mobility_markerset:RSH3			Mobility_markerset:RSH4			Mobility_markerset:RLMAL			Mobility_markerset:RMMAL			Mobility_markerset:RCAL			Mobility_markerset:RMTP1			Mobility_markerset:RTOE			Mobility_markerset:RMTP5		
		X1	Y1	Z1	X2	Y2	Z2	X3	Y3	Z3	X4	Y4	Z4	X5	Y5	Z5	X6	Y6	Z6	X7	Y7	Z7	X8	Y8	Z8	X9	Y9	Z9	X10	Y10	Z10	X11	Y11	Z11	X12	Y12	Z12	X13	Y13	Z13	X14	Y14	Z14	X15	Y15	Z15	X16	Y16	Z16	X17	Y17	Z17	X18	Y18	Z18	X19	Y19	Z19	X20	Y20	Z20	X21	Y21	Z21	X22	Y22	Z22	X23	Y23	Z23	X24	Y24	Z24	X25	Y25	Z25	X26	Y26	Z26	X27	Y27	Z27	X28	Y28	Z28	X29	Y29	Z29	X30	Y30	Z30	X31	Y31	Z31	X32	Y32	Z32	X33	Y33	Z33	X34	Y34	Z34	X35	Y35	Z35	X36	Y36	Z36

1024	8.52500	0.00000	0.00000	0.00000	-2933.69214	1029.75366	450.49606	-2814.10083	700.70105	495.95605	-2821.85571	654.48187	485.39050	-2874.59473	704.51489	496.87247	-2873.37183	659.57544	483.03003	-2853.17188	540.13745	446.59436	-2864.50928	549.66461	308.62766	-2786.26245	386.48218	430.17075	-2777.04150	335.27390	428.08145	-2845.49805	370.47873	425.14279	-2828.21899	327.40268	425.21448	-2745.37524	96.70547	400.51309	-2732.43774	99.62312	317.22931	-2661.45850	73.75535	363.57349	-2883.14380	39.27081	410.12659	-2907.36523	61.38578	341.42926	-2889.24048	51.77151	308.11316	-2699.36572	1046.65491	257.59949	-2931.12427	1010.88330	192.99069	-2981.50269	710.51770	111.93361	-2999.64258	671.60376	117.00819	-2928.02417	679.30078	113.45277	-2953.81543	644.98785	119.74245	-3046.12451	534.90619	157.99619	-3060.12378	552.35992	274.92337	-2919.59375	350.60074	155.44583	-2915.58911	307.14569	152.35323	-2981.73022	338.58774	145.91219	-2968.59399	295.60358	146.21191	-2905.87036	125.73134	179.15027	-2940.93408	140.66521	260.02631	-2856.51318	105.39253	235.76955	-3064.27881	52.40039	248.24406	-3090.82300	70.40839	197.23367	-3023.21826	45.87181	137.79590
1025	8.53333	0.00000	0.00000	0.00000	-2941.32910	1028.55994	451.37885	-2819.65137	700.62091	495.51581	-2827.23071	654.29962	485.12079	-2880.28662	703.85956	496.71909	-2878.92432	658.93036	482.93491	-2857.96460	539.61658	446.43073	-2871.47852	549.81128	308.49780	-2789.52222	386.56525	429.98883	-2779.84106	335.12579	427.84747	-2848.82642	370.09650	425.32266	-2830.93945	327.12445	425.15515	-2745.80322	97.14023	400.50504	-2732.85425	99.97855	316.98190	-2661.62549	74.56934	363.51932	-2883.22168	39.17414	410.16663	-2907.41504	61.13258	341.36136	-2889.30005	51.64050	307.98770	-2709.13574	1046.07947	255.20245	-2942.85107	1010.79956	193.51897	-2993.13452	710.39349	113.02336	-3010.73389	671.11896	118.61799	-2939.13501	679.10150	113.89602	-2965.79956	644.38556	120.68439	-3056.71704	534.62811	159.09033	-3068.65625	551.56476	276.54413	-2940.68726	344.39639	154.21425	-2939.21655	300.96738	151.04247	-3003.15479	335.85684	145.36136	-2992.81030	292.10367	145.37723	-2940.09253	118.41734	176.96057	-2974.29932	135.40422	258.03967	-2891.79150	96.00780	233.85551	-3102.51514	54.01841	245.12392	-3127.53320	73.32259	193.94508	-3061.35278	46.04030	134.81425
1026	8.54167	0.00000	0.00000	0.00000	-2948.97095	1027.32605	452.26508	-2825.48364	700.17859	495.27689	-2832.66772	653.92035	484.74753	-2885.93408	703.12708	496.55646	-2884.48071	658.31763	482.77664	-2862.80835	538.99518	446.34567	-2875.12573	548.27148	308.58548	-2792.78784	386.67383	429.78339	-2785.17725	340.55402	433.55719	-2852.41577	369.18384	425.41006	-2833.80396	326.94568	425.32910	-2746.40112	97.47639	400.62125	-2734.19116	100.38737	316.71646	-2661.88037	75.40564	363.33917	-2883.28735	39.09622	410.22098	-2907.35596	60.82040	341.23929	-2889.40771	51.55565	307.87891	-2719.10083	1045.31628	252.82912	-2953.51147	1009.95569	194.10466	-3003.59009	709.15619	114.83826	-3021.38306	670.23792	120.12766	-2949.88379	678.51727	114.49383	-2975.38867	643.88385	121.61966	-3067.24463	534.04407	159.88261	-3076.66846	550.12665	278.06747	-2961.66455	338.35501	153.29413	-2964.21533	295.40085	149.29947	-3024.58496	333.55008	144.78972	-3016.68823	289.22763	144.51360	-2974.12939	112.87607	175.12845	-3007.24512	131.20680	256.14227	-2927.00635	87.94674	232.02603	-3140.41626	57.13462	242.64459	-3163.70532	77.41045	191.33582	-3098.82300	45.74979	132.77359
1027	8.55000	0.00000	0.00000	0.00000	-2956.61743	1026.07068	453.08524	-2831.31836	699.89789	494.85144	-2838.12646	653.59778	484.53320	-2891.61353	702.32324	496.36279	-2889.83374	657.53333	482.58029	-2867.49072	538.30280	446.21335	-2880.49365	547.48846	308.63055	-2796.05688	386.70401	429.66641	-2787.98853	340.66953	433.42313	-2855.45825	368.62787	425.37488	-2836.26172	326.28781	425.12308	-2746.83838	97.88693	400.62869	-2733.87085	100.84816	316.44852	-2662.63135	76.07859	363.21463	-2883.34619	39.01180	410.30731	-2907.48145	60.59142	341.30386	-2889.15381	51.49521	307.74356	-2729.25000	1044.38562	250.38399	-2964.23950	1008.79645	194.61452	-3014.05371	707.95557	116.24627	-3031.65845	669.00842	121.50649	-2959.46289	677.83392	115.03024	-2985.44604	642.81281	122.26419	-3077.53149	533.15765	160.25528	-3084.48853	548.10718	279.63297	0.00000	0.00000	0.00000	-2984.98218	288.99805	149.46478	-3045.62134	331.92542	144.03564	-3038.78711	286.21011	143.01344	-3008.01733	108.29014	173.45177	-3040.09644	128.42880	254.44484	-2962.27588	81.26090	230.35349	-3176.67603	61.15750	240.63870	-3199.56592	83.09138	189.67755	-3135.55615	48.44976	130.53139
1028	8.55833	0.00000	0.00000	0.00000	-2964.39111	1024.83118	453.83658	-2836.91577	699.53320	494.35724	-2843.52661	653.09680	484.14969	-2897.26538	701.41376	496.14307	-2895.19824	656.63794	482.37955	-2872.25391	537.49548	446.08636	-2885.81323	546.58624	308.70706	-2799.23315	386.71323	429.37924	-2790.86572	340.72794	433.25708	-2858.56348	367.99335	425.24899	-2838.89697	325.74869	425.07431	-2747.29370	98.28078	400.57596	-2734.30688	101.24123	316.12927	-2662.94385	76.85316	363.04218	-2883.26465	38.87860	410.29224	-2907.45898	60.36139	341.30441	-2889.34619	51.39441	307.52191	-2739.30859	1043.57776	247.74094	-2975.34961	1007.45020	195.19020	-3024.52954	706.56842	117.65246	-3041.48315	667.27197	122.63064	-2969.46313	676.53644	115.48526	-2995.14941	641.34973	122.74290	-3087.52588	531.97595	160.27464	-3092.14087	545.62054	281.09122	-3003.05737	328.47250	151.29086	-3008.92725	284.31769	148.35785	-3066.19238	330.80914	143.33633	-3062.75684	285.27316	141.76215	-3041.56909	105.86433	171.79871	-3072.25073	126.95747	252.96553	-2996.85156	75.76723	228.80273	-3212.86646	67.27701	239.11026	-3233.90845	89.90690	188.15427	-3172.18506	51.92255	129.04433
1029	8.56667	0.00000	0.00000	0.00000	-2972.20337	1023.59698	454.53354	-2842.80908	699.08099	493.93872	-2848.89282	652.63312	483.79175	-2902.93213	700.46564	495.95526	-2900.52954	655.70697	482.22266	-2877.06055	536.68799	446.02560	-2891.22729	545.68347	308.81207	-2802.33423	386.71811	429.11267	-2793.61646	340.70422	433.11887	-2861.31787	367.16885	425.05835	-2841.56396	325.27637	425.03989	-2747.76343	98.62666	400.55582	-2734.55615	101.40386	315.94540	-2662.90967	77.77925	362.95139	-2883.31616	38.73541	410.36026	-2907.43042	60.19596	341.27661	-2889.47363	51.43495	307.68884	-2749.75903	1042.42712	245.17569	-2986.42871	1005.75104	195.91943	-3034.35693	704.38647	118.67475	-3051.11548	665.10559	123.49171	-2979.35718	674.79401	115.77809	-3004.58691	639.41724	122.95264	-3097.44775	530.58209	159.88985	-3099.69629	542.70935	282.40814	-3023.28296	324.45114	150.25142	-3031.77051	280.70538	147.34003	-3086.18921	330.11371	142.62868	-3085.26147	284.94302	141.39803	-3073.94092	103.94617	170.49957	-3103.39282	126.74230	251.74120	-3030.32690	71.27343	227.88850	-3247.32666	74.92026	238.00185	-3266.98462	98.76126	186.80931	-3207.39844	57.15284	127.78902
